<svg width="30" height="29" viewBox="0 0 30 29" fill="none" xmlns="http://www.w3.org/2000/svg">
<path d="M15 0.277794C11.1363 0.277794 10.6539 0.295572 9.1369 0.363127C7.62223 0.434238 6.59112 0.67246 5.68446 1.02446C4.74935 1.38713 3.95527 1.87424 3.16475 2.66475C2.37424 3.45527 1.88594 4.24816 1.52446 5.18446C1.17246 6.09112 0.933053 7.12223 0.863127 8.6369C0.792016 10.1539 0.777794 10.6363 0.777794 14.5C0.777794 18.3637 0.795572 18.8461 0.863127 20.3631C0.934238 21.8766 1.17246 22.9089 1.52446 23.8155C1.88155 24.7647 2.44131 25.6246 3.16475 26.3352C3.87501 27.0592 4.735 27.619 5.68446 27.9755C6.59231 28.3264 7.62342 28.5669 9.1369 28.6369C10.6539 28.708 11.1363 28.7222 15 28.7222C18.8637 28.7222 19.3461 28.7044 20.8631 28.6369C22.3766 28.5658 23.4089 28.3264 24.3155 27.9755C25.2645 27.618 26.1243 27.0583 26.8352 26.3352C27.5594 25.6252 28.1193 24.7651 28.4755 23.8155C28.8264 22.9089 29.0669 21.8766 29.1369 20.3631C29.208 18.8461 29.2222 18.3637 29.2222 14.5C29.2222 10.6363 29.2044 10.1539 29.1369 8.6369C29.0658 7.12342 28.8264 6.08994 28.4755 5.18446C28.1183 4.23538 27.5585 3.37554 26.8352 2.66475C26.1255 1.94018 25.2654 1.38024 24.3155 1.02446C23.4089 0.67246 22.3766 0.433053 20.8631 0.363127C19.3461 0.292016 18.8637 0.277794 15 0.277794ZM15 2.83779C18.7961 2.83779 19.2489 2.85675 20.7481 2.92194C22.1348 2.98712 22.8874 3.21705 23.3875 3.41379C24.0536 3.67098 24.5253 3.97912 25.0255 4.47572C25.5221 4.97349 25.8302 5.44638 26.0874 6.11245C26.2818 6.6126 26.5141 7.36519 26.5769 8.75186C26.6444 10.2523 26.6598 10.7027 26.6598 14.5C26.6598 18.2973 26.6421 18.7489 26.5721 20.2481C26.4998 21.6348 26.2687 22.3874 26.0732 22.8875C25.8418 23.5047 25.4781 24.0638 25.0077 24.5255C24.548 24.9963 23.9893 25.3591 23.3721 25.5874C22.8744 25.7818 22.1099 26.0141 20.7233 26.0769C19.2133 26.1444 18.7689 26.1598 14.9644 26.1598C11.1588 26.1598 10.7144 26.1421 9.20564 26.0721C7.81779 25.9998 7.05334 25.7687 6.55557 25.5732C5.93797 25.3447 5.37948 24.9806 4.9212 24.5077C4.44544 24.0511 4.08056 23.4916 3.85453 22.8721C3.65898 22.3744 3.42905 21.6099 3.35675 20.2233C3.30342 18.7299 3.28446 18.2689 3.28446 14.4822C3.28446 10.6944 3.30342 10.2322 3.35675 8.72104C3.42905 7.33438 3.65898 6.57112 3.85453 6.07334C4.10342 5.39779 4.42223 4.93557 4.9212 4.4366C5.41779 3.94001 5.8812 3.62001 6.55557 3.37231C7.05334 3.17557 7.80119 2.94446 9.18786 2.87335C10.699 2.82001 11.1434 2.80224 14.9467 2.80224L15 2.83779ZM15 7.1969C14.0409 7.1969 13.0913 7.3858 12.2052 7.75281C11.3192 8.11983 10.5141 8.65777 9.83593 9.33593C9.15777 10.0141 8.61983 10.8192 8.25281 11.7052C7.8858 12.5913 7.6969 13.5409 7.6969 14.5C7.6969 15.4591 7.8858 16.4087 8.25281 17.2948C8.61983 18.1808 9.15777 18.9859 9.83593 19.6641C10.5141 20.3422 11.3192 20.8802 12.2052 21.2472C13.0913 21.6142 14.0409 21.8031 15 21.8031C16.9369 21.8031 18.7945 21.0337 20.1641 19.6641C21.5337 18.2945 22.3031 16.4369 22.3031 14.5C22.3031 12.5631 21.5337 10.7055 20.1641 9.33593C18.7945 7.96633 16.9369 7.1969 15 7.1969ZM15 19.2407C12.3807 19.2407 10.2593 17.1193 10.2593 14.5C10.2593 11.8807 12.3807 9.75927 15 9.75927C17.6193 9.75927 19.7407 11.8807 19.7407 14.5C19.7407 17.1193 17.6193 19.2407 15 19.2407ZM24.299 6.9089C24.2825 7.35053 24.0955 7.76858 23.7772 8.0752C23.459 8.38182 23.0342 8.55313 22.5923 8.55313C22.1504 8.55313 21.7256 8.38182 21.4074 8.0752C21.0891 7.76858 20.9021 7.35053 20.8856 6.9089C20.8856 6.45626 21.0654 6.02217 21.3855 5.7021C21.7056 5.38204 22.1397 5.20223 22.5923 5.20223C23.0449 5.20223 23.479 5.38204 23.7991 5.7021C24.1191 6.02217 24.299 6.45626 24.299 6.9089Z" fill="#238E08"/>
</svg>
