<svg width="30" height="25" viewBox="0 0 30 25" fill="none" xmlns="http://www.w3.org/2000/svg">
<path fill-rule="evenodd" clip-rule="evenodd" d="M29.2222 3.67808C28.1757 4.14268 27.051 4.45556 25.8705 4.5966C27.0747 3.87482 28.0003 2.73112 28.4364 1.36816C27.3093 2.03779 26.0601 2.52253 24.7304 2.78564C23.6661 1.65023 22.149 0.941494 20.4708 0.941494C17.2483 0.941494 14.635 3.55482 14.635 6.77734C14.635 7.23482 14.6871 7.68045 14.7867 8.10712C9.9369 7.86415 5.63586 5.54119 2.75824 2.00934C2.25572 2.87216 1.96772 3.87364 1.96772 4.94386C1.96772 6.96815 2.99764 8.75541 4.56446 9.80193C3.60801 9.76993 2.70727 9.508 1.92031 9.07186V9.14415C1.92031 11.972 3.93157 14.3305 6.60179 14.8662C6.11231 15.0013 5.59557 15.0713 5.0646 15.0713C4.68772 15.0713 4.32268 15.0345 3.96594 14.967C4.70905 17.2852 6.86371 18.9729 9.41779 19.0203C7.41957 20.5847 4.90342 21.5175 2.17039 21.5175C1.69868 21.5175 1.23409 21.4902 0.777794 21.4369C3.36031 23.0914 6.42757 24.0585 9.72356 24.0585C20.4578 24.0585 26.3268 15.1661 26.3268 7.45408C26.3268 7.20163 26.3209 6.95038 26.3102 6.7003C27.4504 5.8766 28.44 4.84905 29.2222 3.67808Z" fill="#149E08"/>
</svg>
